<mxfile host="app.diagrams.net" modified="2023-05-25T15:08:12.661Z" agent="Mozilla/5.0 (Macintosh; Intel Mac OS X 10_15_7) AppleWebKit/537.36 (KHTML, like Gecko) Chrome/113.0.0.0 Safari/537.36" version="21.3.4" etag="iWBe5rRhycV8gK3YbwNe" type="github">
  <diagram name="Page-1" id="aSQf_2MuIy1ftlVsTNaf">
    <mxGraphModel>
      <root>
        <mxCell id="0" />
        <mxCell id="1" parent="0" />
      </root>
    </mxGraphModel>
  </diagram>
</mxfile>
